<svg xmlns="http://www.w3.org/2000/svg" width="16" height="16" viewBox="0 0 16 16" shape-rendering="crispEdges"><rect x="4" y="0" width="2" height="1" fill="#141414"/><rect x="3" y="1" width="1" height="1" fill="#141414"/><rect x="4" y="1" width="2" height="1" fill="#ffffff"/><rect x="6" y="1" width="1" height="1" fill="#141414"/><rect x="3" y="2" width="1" height="1" fill="#141414"/><rect x="4" y="2" width="2" height="1" fill="#ffffff"/><rect x="6" y="2" width="1" height="1" fill="#141414"/><rect x="3" y="3" width="1" height="1" fill="#141414"/><rect x="4" y="3" width="2" height="1" fill="#ffffff"/><rect x="6" y="3" width="1" height="1" fill="#141414"/><rect x="3" y="4" width="1" height="1" fill="#141414"/><rect x="4" y="4" width="2" height="1" fill="#ffffff"/><rect x="6" y="4" width="1" height="1" fill="#141414"/><rect x="3" y="5" width="1" height="1" fill="#141414"/><rect x="4" y="5" width="2" height="1" fill="#ffffff"/><rect x="6" y="5" width="3" height="1" fill="#141414"/><rect x="3" y="6" width="1" height="1" fill="#141414"/><rect x="4" y="6" width="2" height="1" fill="#ffffff"/><rect x="6" y="6" width="1" height="1" fill="#141414"/><rect x="7" y="6" width="2" height="1" fill="#ffffff"/><rect x="9" y="6" width="2" height="1" fill="#141414"/><rect x="3" y="7" width="1" height="1" fill="#141414"/><rect x="4" y="7" width="2" height="1" fill="#ffffff"/><rect x="6" y="7" width="1" height="1" fill="#141414"/><rect x="7" y="7" width="2" height="1" fill="#ffffff"/><rect x="9" y="7" width="1" height="1" fill="#141414"/><rect x="10" y="7" width="2" height="1" fill="#ffffff"/><rect x="12" y="7" width="1" height="1" fill="#141414"/><rect x="0" y="8" width="2" height="1" fill="#141414"/><rect x="3" y="8" width="1" height="1" fill="#141414"/><rect x="4" y="8" width="2" height="1" fill="#ffffff"/><rect x="6" y="8" width="1" height="1" fill="#141414"/><rect x="7" y="8" width="2" height="1" fill="#ffffff"/><rect x="9" y="8" width="1" height="1" fill="#141414"/><rect x="10" y="8" width="2" height="1" fill="#ffffff"/><rect x="12" y="8" width="1" height="1" fill="#141414"/><rect x="0" y="9" width="1" height="1" fill="#141414"/><rect x="1" y="9" width="2" height="1" fill="#ffffff"/><rect x="3" y="9" width="1" height="1" fill="#141414"/><rect x="4" y="9" width="8" height="1" fill="#ffffff"/><rect x="12" y="9" width="1" height="1" fill="#141414"/><rect x="0" y="10" width="1" height="1" fill="#141414"/><rect x="1" y="10" width="11" height="1" fill="#ffffff"/><rect x="12" y="10" width="1" height="1" fill="#141414"/><rect x="1" y="11" width="1" height="1" fill="#141414"/><rect x="2" y="11" width="9" height="1" fill="#ffffff"/><rect x="11" y="11" width="1" height="1" fill="#a3adb8"/><rect x="12" y="11" width="1" height="1" fill="#141414"/><rect x="2" y="12" width="1" height="1" fill="#141414"/><rect x="3" y="12" width="5" height="1" fill="#ffffff"/><rect x="8" y="12" width="3" height="1" fill="#a3adb8"/><rect x="11" y="12" width="1" height="1" fill="#141414"/><rect x="3" y="13" width="1" height="1" fill="#141414"/><rect x="4" y="13" width="5" height="1" fill="#ffffff"/><rect x="9" y="13" width="2" height="1" fill="#a3adb8"/><rect x="11" y="13" width="1" height="1" fill="#141414"/><rect x="3" y="14" width="1" height="1" fill="#141414"/><rect x="4" y="14" width="3" height="1" fill="#ffffff"/><rect x="7" y="14" width="3" height="1" fill="#a3adb8"/><rect x="10" y="14" width="1" height="1" fill="#141414"/><rect x="3" y="15" width="8" height="1" fill="#141414"/></svg>
